<mxfile host="app.diagrams.net" modified="2024-03-20T02:29:08.234Z" agent="Mozilla/5.0 (Macintosh; Intel Mac OS X 10_15_7) AppleWebKit/537.36 (KHTML, like Gecko) Chrome/122.0.0.0 Safari/537.36" version="24.0.5" etag="p67bxWdTpZVTiGHLcnCO" type="github">
  <diagram name="Page-1" id="jtxZJDbQ9lsRISoqe4dU">
    <mxGraphModel>
      <root>
        <mxCell id="0" />
        <mxCell id="1" parent="0" />
      </root>
    </mxGraphModel>
  </diagram>
</mxfile>
